<svg width="40" height="40" viewBox="0 0 40 40" fill="none" xmlns="http://www.w3.org/2000/svg">
<path d="M31.6668 3.33337H8.3335C5.57683 3.33337 3.3335 5.57671 3.3335 8.33337V13.0517C3.3335 14.8067 3.97016 16.4017 5.00016 17.6284V33.3334C5.00016 33.7754 5.17576 34.1993 5.48832 34.5119C5.80088 34.8244 6.2248 35 6.66683 35H20.0002C20.4422 35 20.8661 34.8244 21.1787 34.5119C21.4912 34.1993 21.6668 33.7754 21.6668 33.3334V25H28.3335V33.3334C28.3335 33.7754 28.5091 34.1993 28.8216 34.5119C29.1342 34.8244 29.5581 35 30.0002 35H33.3335C33.7755 35 34.1994 34.8244 34.512 34.5119C34.8246 34.1993 35.0002 33.7754 35.0002 33.3334V17.6267C36.0302 16.4017 36.6668 14.8067 36.6668 13.05V8.33337C36.6668 5.57671 34.4235 3.33337 31.6668 3.33337ZM33.3335 8.33337V13.0517C33.3335 14.9517 31.9185 16.5717 30.1818 16.6634L30.0002 16.6667C28.1618 16.6667 26.6668 15.1717 26.6668 13.3334V6.66671H31.6668C32.5868 6.66671 33.3335 7.41504 33.3335 8.33337ZM16.6668 13.3334V6.66671H23.3335V13.3334C23.3335 15.1717 21.8385 16.6667 20.0002 16.6667C18.1618 16.6667 16.6668 15.1717 16.6668 13.3334ZM6.66683 8.33337C6.66683 7.41504 7.4135 6.66671 8.3335 6.66671H13.3335V13.3334C13.3335 15.1717 11.8385 16.6667 10.0002 16.6667L9.8185 16.6617C8.08183 16.5717 6.66683 14.9517 6.66683 13.0517V8.33337ZM16.6668 26.6667H10.0002V21.6667H16.6668V26.6667Z" fill="url(#paint0_linear)"/>
<defs>
<linearGradient id="paint0_linear" x1="20.0002" y1="3.33337" x2="20.0002" y2="35" gradientUnits="userSpaceOnUse">
<stop stop-color="#EA9769"/>
<stop offset="1" stop-color="#EA6969"/>
</linearGradient>
</defs>
</svg>
